<mxfile host="app.diagrams.net" agent="Mozilla/5.0 (Windows NT 10.0; Win64; x64; rv:131.0) Gecko/20100101 Firefox/131.0" version="26.0.5">
  <diagram name="Page-1" id="m4dN5uLj6KB4xc_oYee4">
    <mxGraphModel dx="2053" dy="913" grid="1" gridSize="10" guides="1" tooltips="1" connect="1" arrows="1" fold="1" page="1" pageScale="1" pageWidth="850" pageHeight="1100" math="0" shadow="0">
      <root>
        <mxCell id="0" />
        <mxCell id="1" parent="0" />
        <mxCell id="oioBOS77KJwBpgPLI6Uj-7" style="edgeStyle=orthogonalEdgeStyle;rounded=0;orthogonalLoop=1;jettySize=auto;html=1;" edge="1" parent="1" source="oioBOS77KJwBpgPLI6Uj-3" target="oioBOS77KJwBpgPLI6Uj-5">
          <mxGeometry relative="1" as="geometry" />
        </mxCell>
        <mxCell id="oioBOS77KJwBpgPLI6Uj-3" value="" style="fontColor=#0066CC;verticalAlign=top;verticalLabelPosition=bottom;labelPosition=center;align=center;html=1;outlineConnect=0;fillColor=#CCCCCC;strokeColor=#6881B3;gradientColor=none;gradientDirection=north;strokeWidth=2;shape=mxgraph.networks.modem;" vertex="1" parent="1">
          <mxGeometry x="10" y="10" width="100" height="30" as="geometry" />
        </mxCell>
        <mxCell id="oioBOS77KJwBpgPLI6Uj-6" style="edgeStyle=orthogonalEdgeStyle;rounded=0;orthogonalLoop=1;jettySize=auto;html=1;" edge="1" parent="1" source="oioBOS77KJwBpgPLI6Uj-4" target="oioBOS77KJwBpgPLI6Uj-5">
          <mxGeometry relative="1" as="geometry" />
        </mxCell>
        <mxCell id="oioBOS77KJwBpgPLI6Uj-4" value="" style="fontColor=#0066CC;verticalAlign=top;verticalLabelPosition=bottom;labelPosition=center;align=center;html=1;outlineConnect=0;fillColor=#CCCCCC;strokeColor=#6881B3;gradientColor=none;gradientDirection=north;strokeWidth=2;shape=mxgraph.networks.modem;" vertex="1" parent="1">
          <mxGeometry x="160" y="10" width="100" height="30" as="geometry" />
        </mxCell>
        <mxCell id="oioBOS77KJwBpgPLI6Uj-17" value="" style="edgeStyle=orthogonalEdgeStyle;rounded=0;orthogonalLoop=1;jettySize=auto;html=1;" edge="1" parent="1" source="oioBOS77KJwBpgPLI6Uj-5" target="oioBOS77KJwBpgPLI6Uj-9">
          <mxGeometry relative="1" as="geometry" />
        </mxCell>
        <mxCell id="oioBOS77KJwBpgPLI6Uj-5" value="" style="fontColor=#0066CC;verticalAlign=top;verticalLabelPosition=bottom;labelPosition=center;align=center;html=1;outlineConnect=0;fillColor=#CCCCCC;strokeColor=#6881B3;gradientColor=none;gradientDirection=north;strokeWidth=2;shape=mxgraph.networks.router;" vertex="1" parent="1">
          <mxGeometry x="80" y="120" width="100" height="30" as="geometry" />
        </mxCell>
        <mxCell id="oioBOS77KJwBpgPLI6Uj-8" value="" style="fontColor=#0066CC;verticalAlign=top;verticalLabelPosition=bottom;labelPosition=center;align=center;html=1;outlineConnect=0;fillColor=#CCCCCC;strokeColor=#6881B3;gradientColor=none;gradientDirection=north;strokeWidth=2;shape=mxgraph.networks.switch;" vertex="1" parent="1">
          <mxGeometry x="170" y="600" width="100" height="30" as="geometry" />
        </mxCell>
        <mxCell id="oioBOS77KJwBpgPLI6Uj-25" style="edgeStyle=orthogonalEdgeStyle;rounded=0;orthogonalLoop=1;jettySize=auto;html=1;" edge="1" parent="1" source="oioBOS77KJwBpgPLI6Uj-9" target="oioBOS77KJwBpgPLI6Uj-13">
          <mxGeometry relative="1" as="geometry" />
        </mxCell>
        <mxCell id="oioBOS77KJwBpgPLI6Uj-31" style="edgeStyle=orthogonalEdgeStyle;rounded=0;orthogonalLoop=1;jettySize=auto;html=1;" edge="1" parent="1" source="oioBOS77KJwBpgPLI6Uj-9" target="oioBOS77KJwBpgPLI6Uj-11">
          <mxGeometry relative="1" as="geometry" />
        </mxCell>
        <mxCell id="oioBOS77KJwBpgPLI6Uj-9" value="" style="fontColor=#0066CC;verticalAlign=top;verticalLabelPosition=bottom;labelPosition=center;align=center;html=1;outlineConnect=0;fillColor=#CCCCCC;strokeColor=#6881B3;gradientColor=none;gradientDirection=north;strokeWidth=2;shape=mxgraph.networks.router;" vertex="1" parent="1">
          <mxGeometry x="80" y="210" width="100" height="30" as="geometry" />
        </mxCell>
        <mxCell id="oioBOS77KJwBpgPLI6Uj-10" value="" style="fontColor=#0066CC;verticalAlign=top;verticalLabelPosition=bottom;labelPosition=center;align=center;html=1;outlineConnect=0;fillColor=#CCCCCC;strokeColor=#6881B3;gradientColor=none;gradientDirection=north;strokeWidth=2;shape=mxgraph.networks.switch;" vertex="1" parent="1">
          <mxGeometry x="590" y="320" width="100" height="30" as="geometry" />
        </mxCell>
        <mxCell id="oioBOS77KJwBpgPLI6Uj-11" value="" style="fontColor=#0066CC;verticalAlign=top;verticalLabelPosition=bottom;labelPosition=center;align=center;html=1;outlineConnect=0;fillColor=#CCCCCC;strokeColor=#6881B3;gradientColor=none;gradientDirection=north;strokeWidth=2;shape=mxgraph.networks.switch;" vertex="1" parent="1">
          <mxGeometry x="-810" y="350" width="100" height="30" as="geometry" />
        </mxCell>
        <mxCell id="oioBOS77KJwBpgPLI6Uj-12" value="" style="fontColor=#0066CC;verticalAlign=top;verticalLabelPosition=bottom;labelPosition=center;align=center;html=1;outlineConnect=0;fillColor=#CCCCCC;strokeColor=#6881B3;gradientColor=none;gradientDirection=north;strokeWidth=2;shape=mxgraph.networks.switch;" vertex="1" parent="1">
          <mxGeometry x="-30" y="350" width="100" height="30" as="geometry" />
        </mxCell>
        <mxCell id="oioBOS77KJwBpgPLI6Uj-13" value="" style="fontColor=#0066CC;verticalAlign=top;verticalLabelPosition=bottom;labelPosition=center;align=center;html=1;outlineConnect=0;fillColor=#CCCCCC;strokeColor=#6881B3;gradientColor=none;gradientDirection=north;strokeWidth=2;shape=mxgraph.networks.switch;" vertex="1" parent="1">
          <mxGeometry x="360" y="330" width="100" height="30" as="geometry" />
        </mxCell>
        <mxCell id="oioBOS77KJwBpgPLI6Uj-14" value="" style="fontColor=#0066CC;verticalAlign=top;verticalLabelPosition=bottom;labelPosition=center;align=center;html=1;outlineConnect=0;fillColor=#CCCCCC;strokeColor=#6881B3;gradientColor=none;gradientDirection=north;strokeWidth=2;shape=mxgraph.networks.switch;" vertex="1" parent="1">
          <mxGeometry x="-320" y="350" width="100" height="30" as="geometry" />
        </mxCell>
        <mxCell id="oioBOS77KJwBpgPLI6Uj-15" value="" style="fontColor=#0066CC;verticalAlign=top;verticalLabelPosition=bottom;labelPosition=center;align=center;html=1;outlineConnect=0;fillColor=#CCCCCC;strokeColor=#6881B3;gradientColor=none;gradientDirection=north;strokeWidth=2;shape=mxgraph.networks.switch;" vertex="1" parent="1">
          <mxGeometry x="70" y="480" width="100" height="30" as="geometry" />
        </mxCell>
        <mxCell id="oioBOS77KJwBpgPLI6Uj-19" value="" style="fontColor=#0066CC;verticalAlign=top;verticalLabelPosition=bottom;labelPosition=center;align=center;html=1;outlineConnect=0;fillColor=#CCCCCC;strokeColor=#6881B3;gradientColor=none;gradientDirection=north;strokeWidth=2;shape=mxgraph.networks.switch;" vertex="1" parent="1">
          <mxGeometry x="690" y="430" width="100" height="30" as="geometry" />
        </mxCell>
        <mxCell id="oioBOS77KJwBpgPLI6Uj-20" value="" style="fontColor=#0066CC;verticalAlign=top;verticalLabelPosition=bottom;labelPosition=center;align=center;html=1;outlineConnect=0;fillColor=#CCCCCC;strokeColor=#6881B3;gradientColor=none;gradientDirection=north;strokeWidth=2;shape=mxgraph.networks.switch;" vertex="1" parent="1">
          <mxGeometry x="-250" y="490" width="100" height="30" as="geometry" />
        </mxCell>
        <mxCell id="oioBOS77KJwBpgPLI6Uj-22" value="" style="fontColor=#0066CC;verticalAlign=top;verticalLabelPosition=bottom;labelPosition=center;align=center;html=1;outlineConnect=0;fillColor=#CCCCCC;strokeColor=#6881B3;gradientColor=none;gradientDirection=north;strokeWidth=2;shape=mxgraph.networks.switch;" vertex="1" parent="1">
          <mxGeometry x="-580" y="350" width="100" height="30" as="geometry" />
        </mxCell>
        <mxCell id="oioBOS77KJwBpgPLI6Uj-24" style="edgeStyle=orthogonalEdgeStyle;rounded=0;orthogonalLoop=1;jettySize=auto;html=1;entryX=0.5;entryY=0;entryDx=0;entryDy=0;entryPerimeter=0;" edge="1" parent="1" source="oioBOS77KJwBpgPLI6Uj-9" target="oioBOS77KJwBpgPLI6Uj-10">
          <mxGeometry relative="1" as="geometry" />
        </mxCell>
        <mxCell id="oioBOS77KJwBpgPLI6Uj-26" style="edgeStyle=orthogonalEdgeStyle;rounded=0;orthogonalLoop=1;jettySize=auto;html=1;entryX=0.5;entryY=0;entryDx=0;entryDy=0;entryPerimeter=0;" edge="1" parent="1" source="oioBOS77KJwBpgPLI6Uj-9" target="oioBOS77KJwBpgPLI6Uj-12">
          <mxGeometry relative="1" as="geometry" />
        </mxCell>
        <mxCell id="oioBOS77KJwBpgPLI6Uj-29" style="edgeStyle=orthogonalEdgeStyle;rounded=0;orthogonalLoop=1;jettySize=auto;html=1;entryX=0.5;entryY=0;entryDx=0;entryDy=0;entryPerimeter=0;" edge="1" parent="1" source="oioBOS77KJwBpgPLI6Uj-9" target="oioBOS77KJwBpgPLI6Uj-14">
          <mxGeometry relative="1" as="geometry" />
        </mxCell>
        <mxCell id="oioBOS77KJwBpgPLI6Uj-30" style="edgeStyle=orthogonalEdgeStyle;rounded=0;orthogonalLoop=1;jettySize=auto;html=1;entryX=0.5;entryY=0;entryDx=0;entryDy=0;entryPerimeter=0;" edge="1" parent="1" source="oioBOS77KJwBpgPLI6Uj-9" target="oioBOS77KJwBpgPLI6Uj-22">
          <mxGeometry relative="1" as="geometry" />
        </mxCell>
      </root>
    </mxGraphModel>
  </diagram>
</mxfile>
